<svg width="70" height="70" viewBox="0 0 70 70" fill="none" xmlns="http://www.w3.org/2000/svg">
<path d="M69.9873 66.8325L64.9263 21.5789C64.8101 20.5409 63.9326 19.756 62.8883 19.756H7.10523C6.06071 19.756 5.18297 20.541 5.06715 21.5791L0.0126919 66.8328C-0.0521125 67.4129 0.133277 67.9929 0.522378 68.4279C0.911476 68.8628 1.46724 69.1113 2.05089 69.1113H67.9493C68.5328 69.1113 69.089 68.8628 69.4778 68.4279C69.867 67.9929 70.0522 67.4125 69.9873 66.8325Z" fill="#E13A3A"/>
<path d="M69.9873 66.8325L64.9263 21.5788C64.8101 20.5408 63.9326 19.756 62.8883 19.756H35V69.1113H67.9493C68.5329 69.1113 69.0887 68.8625 69.4779 68.4275C69.867 67.9926 70.0522 67.4125 69.9873 66.8325Z" fill="#F74D4D"/>
<path d="M21.8069 34.5899C24.0721 34.5899 25.9084 32.7537 25.9084 30.4884C25.9084 28.2232 24.0721 26.3869 21.8069 26.3869C19.5416 26.3869 17.7053 28.2232 17.7053 30.4884C17.7053 32.7537 19.5416 34.5899 21.8069 34.5899Z" fill="#2E2E2E"/>
<path d="M48.1935 34.5899C50.4586 34.5899 52.2948 32.7537 52.2948 30.4883C52.2948 28.2231 50.4586 26.3868 48.1935 26.3868C45.928 26.3868 44.0918 28.2231 44.0918 30.4883C44.0918 32.7537 45.928 34.5899 48.1935 34.5899Z" fill="#1A1A1A"/>
<path d="M48.1933 31.8557C47.0609 31.8557 46.1426 30.9374 46.1426 29.8048V16.133C46.1426 9.98895 41.144 4.99038 34.9999 4.99038C28.856 4.99038 23.8574 9.98895 23.8574 16.133V29.8048C23.8574 30.9374 22.9392 31.8557 21.8066 31.8557C20.6741 31.8557 19.7559 30.9374 19.7559 29.8048V16.133C19.7559 7.72735 26.5944 0.888824 34.9999 0.888824C43.4056 0.888824 50.2443 7.72735 50.2443 16.133V29.8048C50.2443 30.9374 49.326 31.8557 48.1933 31.8557Z" fill="#FFF4F4"/>
<path d="M35 0.888824V4.99038C41.1441 4.99038 46.1427 9.98895 46.1427 16.133V29.8048C46.1427 30.9374 47.0607 31.8557 48.1934 31.8557C49.3258 31.8557 50.2441 30.9374 50.2441 29.8048V16.133C50.2441 7.72735 43.4057 0.888824 35 0.888824Z" fill="#F6EFEA"/>
</svg>
